<?xml version="1.0" encoding="utf-8"?>
<!DOCTYPE svg PUBLIC "-//W3C//DTD SVG 1.1//EN" "http://www.w3.org/Graphics/SVG/1.1/DTD/svg11.dtd">
<svg version="1.1" id="logo" xmlns="http://www.w3.org/2000/svg" xmlns:xlink="http://www.w3.org/1999/xlink" x="0px" y="0px"
	 width="612px" height="161.363px" viewBox="302 577.818 612 161.363" enable-background="new 302 577.818 612 161.363"
	 xml:space="preserve">
<g id="Blendle">
	<path id="B" fill="#FFFFFF" d="M505.337,706.593v-98.175h30.957c10.251,0,18.462,2.244,24.378,6.579
		c6.019,4.335,9.078,10.761,9.078,19.481c0,8.671-3.621,15.708-10.965,21.013c8.874,5.457,13.311,13.311,13.311,23.256
		c0,17.238-13.056,27.896-33.404,27.896h-33.354V706.593z M521.861,623.514v25.348h11.117c13.312,0,19.941-4.335,19.941-12.903
		c0-9.537-7.65-12.444-20.808-12.444H521.861L521.861,623.514z M521.861,691.497h12.087c14.279,0,21.471-4.743,21.471-14.28
		c0-8.67-6.936-13.005-20.961-13.005H521.81L521.861,691.497L521.861,691.497z"/>
	<path id="l" fill="#FFFFFF" d="M581.633,706.899v-98.227h15.811v98.175h-15.811V706.899z"/>
	<path id="e" fill="#FFFFFF" d="M669.506,677.268h-46.461c0.714,10.251,7.752,16.678,17.901,16.678
		c7.344,0,13.157-3.213,17.493-9.69l10.658,10.098c-7.19,9.436-16.626,14.025-28.151,14.025c-10.099,0-18.462-3.213-24.685-9.792
		c-6.222-6.579-9.435-15.146-9.435-25.653c0-10.251,2.907-18.921,8.619-25.907c5.813-6.987,13.565-10.507,23.153-10.507
		c22.032,0,31.06,17.8,31.06,35.14L669.506,677.268z M623.912,664.518h28.968c-0.153-7.14-4.59-13.464-14.127-13.464
		C630.389,651.105,625.442,657.123,623.912,664.518z"/>
	<path id="n" fill="#FFFFFF" d="M708.827,636.468c-1.326-0.051-30.294-0.714-30.294,27.438c0,28.814,0,43.044,0,43.044h16.778
		v-42.279c0-7.548,6.069-13.617,13.516-13.617s13.515,6.12,13.515,13.617v42.279h16.729c0,0,0-14.229,0-43.044
		C739.07,635.703,710.102,636.417,708.827,636.468z"/>
	<path id="d" fill="#FFFFFF" d="M800.219,608.622V643.2c-5.15-4.488-11.525-6.732-18.972-6.732c-9.69,0-17.595,3.366-23.868,10.251
		c-6.222,6.885-9.282,15.402-9.282,25.755c0,10.354,3.061,18.921,9.282,25.755c6.222,6.732,14.127,10.099,23.868,10.099
		c7.905,0,14.433-2.499,19.278-7.701v6.222h15.504v-98.226H800.219z M782.369,694.353c-11.526,0-18.156-9.536-18.156-21.879
		c0-12.342,6.63-21.827,18.156-21.827c11.628,0,18.156,9.536,18.156,21.827C800.525,684.816,793.997,694.353,782.369,694.353z"/>
	<path id="l_1_" fill="#FFFFFF" d="M827.351,706.899v-98.227h15.811v98.175h-15.811V706.899z"/>
	<path id="e_1_" fill="#FFFFFF" d="M913.847,677.268h-46.461c0.714,10.251,7.752,16.678,17.901,16.678
		c7.344,0,13.158-3.213,17.493-9.69l10.659,10.098c-7.191,9.385-16.627,14.025-28.152,14.025c-10.098,0-18.462-3.213-24.685-9.792
		c-6.222-6.579-9.435-15.146-9.435-25.653c0-10.251,2.907-18.921,8.619-25.907c5.813-6.987,13.565-10.507,23.154-10.507
		c22.031,0,31.059,17.8,31.059,35.14L913.847,677.268z M868.253,664.518h28.968c-0.152-7.14-4.59-13.464-14.127-13.464
		C874.781,651.105,869.783,657.123,868.253,664.518z"/>
</g>
<g id="Icon">
	<path id="supercircle" fill="#FF6255" d="M461.732,658.5c-0.256,25.551-6.019,47.175-19.737,60.741
		c-13.464,13.872-34.833,19.686-60.129,19.94c-25.296-0.255-46.665-6.068-60.129-19.94c-13.72-13.566-19.482-35.19-19.737-60.741
		c0.255-25.551,6.018-47.175,19.737-60.741c13.464-13.872,34.833-19.686,60.129-19.94c25.296,0.255,46.665,6.068,60.129,19.94
		C455.663,611.325,461.477,632.949,461.732,658.5z"/>
	<g id="Guillemet">
		<path fill="#FFFFFF" d="M388.7,658.5C388.7,658.5,388.751,658.5,388.7,658.5c-12.648-13.668-24.99-26.928-37.383-40.239
			c-4.539,3.57-5.61,4.438-9.895,7.752c0,0,10.965,18.36,16.524,27.132c1.326,2.143,2.142,3.774,2.295,5.355
			c-0.103,1.581-0.918,3.213-2.295,5.355c-5.508,8.771-16.524,27.132-16.524,27.132c4.233,3.314,5.304,4.182,9.895,7.752
			C363.71,685.428,376.052,672.168,388.7,658.5C388.751,658.5,388.7,658.5,388.7,658.5"/>
		<path fill="#FFFFFF" d="M432.611,658.5L432.611,658.5c-13.566-14.637-23.919-25.755-37.384-40.239
			c-4.538,3.57-5.609,4.438-9.894,7.752c0,0,10.965,18.36,16.524,27.132c1.325,2.143,2.142,3.774,2.295,5.355
			c-0.103,1.581-0.918,3.213-2.295,5.355c-5.509,8.771-16.524,27.132-16.524,27.132c4.233,3.314,5.304,4.182,9.894,7.752
			C407.57,685.428,419.912,672.168,432.611,658.5L432.611,658.5"/>
	</g>
</g>
</svg>
